<svg width="22" height="21" viewBox="0 0 22 21" fill="none" xmlns="http://www.w3.org/2000/svg">
<g id="Frame" clip-path="url(#clip0_2_64)">
<path id="Vector" d="M9.96875 4.92188C9.96875 4.37637 10.4285 3.9375 11 3.9375C11.5715 3.9375 12.0312 4.37637 12.0312 4.92188V9.975L15.6965 12.3047C16.1691 12.6082 16.298 13.2193 15.9457 13.6705C15.6664 14.1217 15.0262 14.2447 14.5535 13.9084L10.4285 11.2834C10.1406 11.1357 9.96875 10.8281 9.96875 10.4631V4.92188ZM11 0C17.0758 0 22 4.70039 22 10.5C22 16.2996 17.0758 21 11 21C4.92422 21 0 16.2996 0 10.5C0 4.70039 4.92422 0 11 0ZM2.0625 10.5C2.0625 15.2127 6.06289 19.0312 11 19.0312C15.9371 19.0312 19.9375 15.2127 19.9375 10.5C19.9375 5.7873 15.9371 1.96875 11 1.96875C6.06289 1.96875 2.0625 5.7873 2.0625 10.5Z" fill="#160E10"/>
</g>
<defs>
<clipPath id="clip0_2_64">
<rect width="22" height="21" fill="white"/>
</clipPath>
</defs>
</svg>
