<svg width="25" height="25" viewBox="0 0 25 25" fill="none" xmlns="http://www.w3.org/2000/svg">
<g id="Frame">
<g id="_icons">
<g id="Group">
<path id="Vector" d="M12.5 6.25001H20.8333C21.4583 6.25001 21.875 5.83334 21.875 5.20834C21.875 4.58334 21.4583 4.16667 20.8333 4.16667H12.5C11.875 4.16667 11.4583 4.58334 11.4583 5.20834C11.4583 5.83334 11.875 6.25001 12.5 6.25001Z" fill="#160E10"/>
<path id="Vector_2" d="M20.8333 11.4583H12.5C11.875 11.4583 11.4583 11.875 11.4583 12.5C11.4583 13.125 11.875 13.5417 12.5 13.5417H20.8333C21.4583 13.5417 21.875 13.125 21.875 12.5C21.875 11.875 21.4583 11.4583 20.8333 11.4583Z" fill="#160E10"/>
<path id="Vector_3" d="M20.8333 18.75H12.5C11.875 18.75 11.4583 19.1667 11.4583 19.7917C11.4583 20.4167 11.875 20.8333 12.5 20.8333H20.8333C21.4583 20.8333 21.875 20.4167 21.875 19.7917C21.875 19.1667 21.4583 18.75 20.8333 18.75Z" fill="#160E10"/>
<path id="Vector_4" d="M7.5 3.33334L5.72917 5.9375L5.20833 5.41667C4.79167 5 4.16667 5 3.75 5.41667C3.33333 5.83334 3.33333 6.45834 3.75 6.875L5.10417 8.33334C5.3125 8.54167 5.52083 8.64584 5.83333 8.64584H5.9375C6.25 8.64584 6.5625 8.4375 6.66667 8.22917L9.16667 4.47917C9.47917 3.95834 9.375 3.33334 8.95833 3.02084C8.4375 2.70834 7.8125 2.8125 7.5 3.33334Z" fill="#160E10"/>
<path id="Vector_5" d="M7.5 10.625L5.72917 13.2292L5.20833 12.7083C4.79167 12.2917 4.16667 12.2917 3.75 12.7083C3.33333 13.125 3.33333 13.75 3.75 14.1667L5.10417 15.625C5.3125 15.8333 5.52083 15.9375 5.83333 15.9375H5.9375C6.25 15.9375 6.5625 15.7292 6.66667 15.5208L9.16667 11.7708C9.47917 11.25 9.375 10.625 8.85417 10.3125C8.4375 10 7.8125 10.1042 7.5 10.625Z" fill="#160E10"/>
<path id="Vector_6" d="M7.5 17.9167L5.72917 20.5208L5.20833 20C4.79167 19.5833 4.16667 19.5833 3.75 20C3.33333 20.4167 3.33333 21.0417 3.75 21.4583L5.10417 22.9167C5.3125 23.125 5.52083 23.2292 5.83333 23.2292H5.9375C6.25 23.2292 6.5625 23.0208 6.66667 22.8125L9.16667 19.0625C9.47917 18.5417 9.375 17.9167 8.85417 17.6042C8.4375 17.2917 7.8125 17.3958 7.5 17.9167Z" fill="#160E10"/>
</g>
</g>
</g>
</svg>
