<svg width="20" height="21" viewBox="0 0 20 21" fill="none" xmlns="http://www.w3.org/2000/svg">
<g id="Vector">
<path d="M3.22391 17.7341H4.10708V17.919C4.10708 19.6181 5.55335 21 7.33099 21H16.7755C18.5537 21 20 19.6181 20 17.919V6.34704C20 4.6484 18.5537 3.266 16.7755 3.266H15.8924V3.08109C15.8924 1.38182 14.4466 0 12.6684 0H3.22391C1.44627 0 0 1.38187 0 3.08109V14.653C0 16.3515 1.44627 17.7341 3.22391 17.7341ZM16.7755 4.2746C17.9735 4.2746 18.9444 5.20248 18.9444 6.34704V17.919C18.9444 19.0635 17.9735 19.9915 16.7755 19.9915H7.33104C6.13351 19.9915 5.16271 19.0635 5.16271 17.919V6.34704C5.16271 5.20243 6.13351 4.2746 7.33104 4.2746H16.7755ZM1.05501 3.08109C1.05501 1.93648 2.02582 1.0086 3.22391 1.0086H12.6684C13.8665 1.0086 14.8373 1.93648 14.8373 3.08109V3.266H7.33104C5.5534 3.266 4.10713 4.6484 4.10713 6.34704V16.7255H3.22391C2.02582 16.7255 1.05501 15.797 1.05501 14.653V3.08109Z" fill="#160E10"/>
<path d="M6.97029 7.41566C6.73846 7.41566 6.55078 7.61116 6.55078 7.85257C6.55078 8.09394 6.73846 8.28943 6.97029 8.28943H15.362C15.5938 8.28943 15.7815 8.09394 15.7815 7.85257C15.7815 7.61116 15.5938 7.41566 15.362 7.41566H6.97029Z" fill="#160E10"/>
<path d="M8.29612 10.8212C8.29612 11.0626 8.48442 11.2581 8.71625 11.2581H16.5798C16.8117 11.2581 17 11.0626 17 10.8212C17 10.5798 16.8117 10.3837 16.5798 10.3837H8.71625C8.48442 10.3837 8.29612 10.5798 8.29612 10.8212Z" fill="#160E10"/>
<path d="M14.7599 13.7892C14.7599 13.5478 14.572 13.3523 14.3403 13.3523H6.97029C6.73846 13.3523 6.55078 13.5478 6.55078 13.7892C6.55078 14.0306 6.73846 14.2267 6.97029 14.2267H14.3403C14.572 14.2267 14.7599 14.0306 14.7599 13.7892Z" fill="#160E10"/>
<path d="M16.5798 16.3209H9.67346C9.44168 16.3209 9.25395 16.5165 9.25395 16.7579C9.25395 16.9993 9.44168 17.1947 9.67346 17.1947H16.5798C16.8117 17.1947 17 16.9993 17 16.7579C17 16.5165 16.8117 16.3209 16.5798 16.3209Z" fill="#160E10"/>
</g>
</svg>
